# xmcd
#
# Track frame offsets:
#	150
#	12442
#	24987
#	42957
#	62402
#	80210
#	93255
#	103405
#	116762
#	135870
#	146895
#	165487
#	179517
#	199292
#	211450
#	223465
#	233735
#	245945
#	258095
#	272072
#
# Disc length: 3969 seconds
#
# Revision: 1
# Processed by: cddbd v1.5.2PL0 Copyright (c) Steve Scherf et al.
# Submitted via: audiograbber 1.83.01
#
DISCID=2f0f7f14
DTITLE=Aaron "T-Bone" Walker - Very Rare
DYEAR=1973
DGENRE=Blues
TTITLE0=Striking On You Babe
TTITLE1=Please Send Me Someone To Love
TTITLE2=The Last Clean Shirt
TTITLE3=Evening
TTITLE4=The Come Back
TTITLE5=Your Picture Done Faded
TTITLE6=Don't Give Me The Runaround
TTITLE7=Hard Times
TTITLE8=Every Day I Have The Blues
TTITLE9=Person To Person
TTITLE10=Fever
TTITLE11=Three Corn Patches 
TTITLE12=I'm Still In Love With You
TTITLE13=Just A Little Bit
TTITLE14=James Junior
TTITLE15=Been Down So Long
TTITLE16=If You Don't Come Back
TTITLE17=Kansas City
TTITLE18=Well, I Done Got Over IT
TTITLE19=Stormy Monday
EXTD=
EXTT0=
EXTT1=
EXTT2=
EXTT3=
EXTT4=
EXTT5=
EXTT6=
EXTT7=
EXTT8=
EXTT9=
EXTT10=
EXTT11=
EXTT12=
EXTT13=
EXTT14=
EXTT15=
EXTT16=
EXTT17=
EXTT18=
EXTT19=
PLAYORDER=
